<svg xmlns="http://www.w3.org/2000/svg" width="88" height="88">
  <defs>
    <filter id="b" width="139.8%" height="139.8%" x="-19.9%" y="-19.9%" filterUnits="objectBoundingBox">
      <feGaussianBlur in="SourceAlpha" result="shadowBlurInner1" stdDeviation="17.5"/>
      <feOffset in="shadowBlurInner1" result="shadowOffsetInner1"/>
      <feComposite in="shadowOffsetInner1" in2="SourceAlpha" k2="-1" k3="1" operator="arithmetic" result="shadowInnerInner1"/>
      <feColorMatrix in="shadowInnerInner1" values="0 0 0 0 0   0 0 0 0 0   0 0 0 0 0   0 0 0 0.0452633304 0"/>
    </filter>
    <circle id="a" cx="44" cy="44" r="44"/>
  </defs>
  <g fill="none" fillRule="evenodd">
    <use fill="#8D1558" href="#a"/>
    <use fill="#000" filter="url(#b)" href="#a"/>
    <path fill="#FFF" fillRule="nonzero" d="M14.411 43.854c.78 0 1.411-.635 1.411-1.42V31.42c0-.784-.631-1.419-1.41-1.419-.78 0-1.412.635-1.412 1.419v11.016c0 .784.631 1.419 1.411 1.419zm8.12.112c3.102 0 5.404-2.334 5.404-5.21v-.037c0-2.875-2.284-5.172-5.366-5.172-3.1 0-5.403 2.334-5.403 5.21v.037c0 2.875 2.284 5.172 5.366 5.172zm.038-2.446c-1.56 0-2.618-1.288-2.618-2.763v-.038c0-1.475.965-2.726 2.58-2.726 1.56 0 2.619 1.289 2.619 2.764v.037c0 1.475-.966 2.726-2.581 2.726zm11.463 2.446c3.1 0 5.403-2.334 5.403-5.21v-.037c0-2.875-2.284-5.172-5.366-5.172-3.1 0-5.403 2.334-5.403 5.21v.037c0 2.875 2.284 5.172 5.366 5.172zm.037-2.446c-1.56 0-2.618-1.288-2.618-2.763v-.038c0-1.475.965-2.726 2.58-2.726 1.56 0 2.619 1.289 2.619 2.764v.037c0 1.475-.966 2.726-2.581 2.726zm7.99 5.321c.78 0 1.412-.635 1.412-1.419v-2.987c.668.803 1.597 1.493 3.1 1.493 2.359 0 4.531-1.83 4.531-5.171v-.038c0-3.342-2.21-5.172-4.53-5.172-1.467 0-2.414.691-3.101 1.625v-.13c0-.785-.631-1.42-1.411-1.42s-1.411.635-1.411 1.42v10.38c0 .784.63 1.42 1.41 1.42zm3.788-5.321c-1.318 0-2.413-1.102-2.413-2.763v-.038c0-1.661 1.095-2.763 2.413-2.763 1.319 0 2.433 1.102 2.433 2.763v.038c0 1.68-1.114 2.763-2.433 2.763zM17.29 57.963c2.154 0 3.806-1.009 3.806-3.23v-.038c0-1.83-1.615-2.502-3.007-2.968-1.077-.374-2.024-.635-2.024-1.195v-.038c0-.392.352-.69 1.04-.69.594 0 1.355.242 2.153.634.186.094.316.131.52.131.631 0 1.133-.485 1.133-1.12 0-.486-.26-.86-.669-1.064-.965-.486-2.042-.766-3.082-.766-2.005 0-3.64 1.139-3.64 3.174v.037c0 1.942 1.58 2.596 2.972 3.006 1.095.336 2.06.542 2.06 1.158v.037c0 .448-.37.747-1.188.747-.798 0-1.745-.299-2.692-.896a1.078 1.078 0 00-.557-.15c-.631 0-1.114.486-1.114 1.12 0 .449.241.785.538.972a6.908 6.908 0 003.751 1.139z"/>
  </g>
</svg>
